<svg xmlns="http://www.w3.org/2000/svg" viewBox="0 0 128 128" role="img" aria-label="ClientFlow">
  <defs>
    <linearGradient id="g" x1="0" y1="0" x2="1" y2="1">
      <stop offset="0" stop-color="#22c55e"/>
      <stop offset="1" stop-color="#16a34a"/>
    </linearGradient>
  </defs>
  <rect width="128" height="128" rx="28" fill="url(#g)"/>
  <path
    d="M44 64c0-14.36 11.64-26 26-26 9.04 0 17.03 4.62 21.7 11.63a6 6 0 1 1-10 6.66A14 14 0 1 0 70 84c5.74 0 10.67-3.45 12.88-8.4a6 6 0 0 1 11.08 4.56C90.16 90.42 80.81 98 70 98 55.64 98 44 86.36 44 72v-8Z"
    fill="#fff"
    opacity="0.95"
  />
  <path
    d="M78 30a6 6 0 0 1 6 6v10h10a6 6 0 1 1 0 12H78a6 6 0 0 1-6-6V36a6 6 0 0 1 6-6Z"
    fill="#fff"
    opacity="0.9"
  />
</svg>
